<svg xmlns="http://www.w3.org/2000/svg" xmlns:xlink="http://www.w3.org/1999/xlink" id="Layer_1" x="0" y="0" version="1.1" viewBox="0 0 81.92 122.88" xml:space="preserve" style="enable-background:new 0 0 81.92 122.88"><style type="text/css">.st0{fill:#1abcfe}.st1{fill:#f24e1e}.st2{fill:#ff7262}.st3{fill:#a259ff}.st4{fill:#0acf83}</style><g><path d="M20.48,122.88c11.3,0,20.48-9.17,20.48-20.48V81.92H20.48C9.18,81.92,0,91.09,0,102.4 C0,113.71,9.18,122.88,20.48,122.88L20.48,122.88L20.48,122.88z" class="st4"/><path d="M0,61.44c0-11.3,9.18-20.48,20.48-20.48h20.48v40.96H20.48C9.18,81.92,0,72.75,0,61.44L0,61.44L0,61.44z" class="st3"/><path d="M0,20.48C0,9.18,9.18,0,20.48,0h20.48v40.96H20.48C9.18,40.96,0,31.79,0,20.48L0,20.48z" class="st1"/><path d="M40.96,0h20.48c11.3,0,20.48,9.18,20.48,20.48c0,11.31-9.17,20.48-20.48,20.48H40.96V0L40.96,0z" class="st2"/><path d="M81.92,61.44c0,11.31-9.17,20.48-20.48,20.48c-11.31,0-20.48-9.17-20.48-20.48c0-11.3,9.17-20.48,20.48-20.48 C72.75,40.96,81.92,50.14,81.92,61.44L81.92,61.44z" class="st0"/></g></svg>