<svg xmlns="http://www.w3.org/2000/svg" xmlns:svg="http://www.w3.org/2000/svg" id="svg2" width="1024.002" height="1024" version="1.1" viewBox="0 0 1024.002 1024"><metadata id="metadata93"/><defs id="defs3"><linearGradient id="l" x1="511.61" x2="511.61" y1="1026.9" y2="-.324" gradientTransform="translate(0.00124066,-5.1299999e-6)" gradientUnits="userSpaceOnUse"><stop id="stop6" offset="0" stop-color="#096fd2"/><stop id="stop8" offset="1" stop-color="#0e8ee9"/></linearGradient><linearGradient id="k" x1="412.95" x2="412.86" y1="648.08" y2="376.45" gradientTransform="translate(0.00124066,-5.1299999e-6)" gradientUnits="userSpaceOnUse"><stop id="stop11" offset="0" stop-color="#096fd2"/><stop id="stop13" offset="1" stop-color="#0e8ee9"/></linearGradient><linearGradient id="j" x1="1391.7" x2="1391.7" y1="728.91" y2="293.06" gradientUnits="userSpaceOnUse"><stop id="stop16" offset="0" stop-color="#096fd2"/><stop id="stop18" offset="1" stop-color="#0e8ee9"/></linearGradient><linearGradient id="i" x1="2429.5" x2="2429.5" y1="728.3" y2="414.01" gradientUnits="userSpaceOnUse"><stop id="stop21" offset="0" stop-color="#096fd2"/><stop id="stop23" offset="1" stop-color="#0e8ee9"/></linearGradient><linearGradient id="h" x1="2006.5" x2="2006.5" y1="735.19" y2="411.59" gradientUnits="userSpaceOnUse"><stop id="stop26" offset="0" stop-color="#096fd2"/><stop id="stop28" offset="1" stop-color="#0e8ee9"/></linearGradient><linearGradient id="g" x1="1678.1" x2="1680.3" y1="739.55" y2="410.58" gradientUnits="userSpaceOnUse"><stop id="stop31" offset="0" stop-color="#096fd2"/><stop id="stop33" offset="1" stop-color="#0e8ee9"/></linearGradient><linearGradient id="f" x1="4382" x2="4382" y1="728.37" y2="413.31" gradientUnits="userSpaceOnUse"><stop id="stop36" offset="0" stop-color="#096fd2"/><stop id="stop38" offset="1" stop-color="#0e8ee9"/></linearGradient><linearGradient id="e" x1="4142.3" x2="4142.3" y1="737.34" y2="413.59" gradientUnits="userSpaceOnUse"><stop id="stop41" offset="0" stop-color="#096fd2"/><stop id="stop43" offset="1" stop-color="#0e8ee9"/></linearGradient><linearGradient id="d" x1="3643.9" x2="3643.9" y1="728.66" y2="422.86" gradientUnits="userSpaceOnUse"><stop id="stop46" offset="0" stop-color="#096fd2"/><stop id="stop48" offset="1" stop-color="#0e8ee9"/></linearGradient><linearGradient id="c" x1="3319.3" x2="3319.3" y1="737.36" y2="413.52" gradientUnits="userSpaceOnUse"><stop id="stop51" offset="0" stop-color="#096fd2"/><stop id="stop53" offset="1" stop-color="#0e8ee9"/></linearGradient><linearGradient id="b" x1="2894.1" x2="2894.1" y1="728.59" y2="293.71" gradientUnits="userSpaceOnUse"><stop id="stop56" offset="0" stop-color="#096fd2"/><stop id="stop58" offset="1" stop-color="#0e8ee9"/></linearGradient><linearGradient id="a" x1="3135.1" x2="3135.1" y1="728.3" y2="293.1" gradientUnits="userSpaceOnUse"><stop id="stop61" offset="0" stop-color="#096fd2"/><stop id="stop63" offset="1" stop-color="#0e8ee9"/></linearGradient></defs><path style="fill:url(#l)" id="path87" d="m 917.00124,0 -811.2,0 A 107.2,105.8 0 0 0 0.00124066,106.3 l 0,811.4 A 107.2,105.8 0 0 0 106.40124,1024 l 811.2,0 A 107.2,105.8 0 0 0 1024.0012,917.7 l 0,-811.4 A 107.2,105.8 0 0 0 917.00124,0 Z m -405.4,935.4 A 426.2,420.6 0 0 1 88.701241,512 426.2,420.6 0 0 1 511.60124,88.6 a 426.2,420.6 0 0 1 423.2,423.4 426.2,420.6 0 0 1 -423.2,423.4 z" class="cls-1"/><path style="fill:url(#k)" id="path89" d="m 904.20124,511.99999 -293.5,-135.7 23.58,86.95 -245.2,0 23.58,-86.95 -293.5,135.8 293.7,135.7 -23.58,-86.95 245.2,0 -23.58,86.95 293.3,-135.7" class="cls-1"/></svg>